<?xml version="1.0" encoding="UTF-8"?>
<svg width="305px" height="49px" viewBox="0 0 305 49" version="1.1" xmlns="http://www.w3.org/2000/svg" xmlns:xlink="http://www.w3.org/1999/xlink">
    <title>Group 18</title>
    <defs>
        <polygon id="path-1" points="0 0 157.358 0 157.358 47.9997 0 47.9997"></polygon>
        <polygon id="path-3" points="2.84217094e-14 0 76.634 0 76.634 47.9997 2.84217094e-14 47.9997"></polygon>
        <polygon id="path-5" points="0 0 50.5605 0 50.5605 48.64 0 48.64"></polygon>
    </defs>
    <g id="Page-1" stroke="none" stroke-width="1" fill="none" fill-rule="evenodd">
        <g id="Group-18" transform="translate(0.000000, -0.000000)">
            <g id="Group-13">
                <g id="Group-3">
                    <mask id="mask-2" fill="white">
                        <use xlink:href="#path-1"></use>
                    </mask>
                    <g id="Clip-2"></g>
                    <path d="M0,47.9997 L33.555,14.4447 C45.708,2.2917 52.282,-0.0003 75.164,-0.0003 L157.358,-0.0003 L140.676,16.3617 L78.743,16.3617 C61.87,16.3617 57.523,17.7037 49.214,25.9487 L27.036,47.9997 L0,47.9997 Z" id="Fill-1" fill="#E10500" mask="url(#mask-2)"></path>
                </g>
                <path d="M80.4048,20.8999 C63.5308,20.8999 60.2718,21.6669 52.6658,29.2729 L34.0668,47.9999 L59.1208,47.9999 L65.0648,41.9279 C68.5808,38.2849 70.0508,37.3899 78.4238,37.3899 L119.3928,37.3899 L136.0748,20.8999 L80.4048,20.8999 Z" id="Fill-4" fill="#E10500"></path>
                <g id="Group-8" transform="translate(115.238300, 0.000000)">
                    <mask id="mask-4" fill="white">
                        <use xlink:href="#path-3"></use>
                    </mask>
                    <g id="Clip-7"></g>
                    <polygon id="Fill-6" fill="#E10500" mask="url(#mask-4)" points="48 -0.0003 2.84217094e-14 47.9997 28.442 47.9997 76.634 -0.0003"></polygon>
                </g>
                <polygon id="Fill-9" fill="#E10500" points="161.5227 39.9974 167.9997 39.9974 167.9997 41.2054 165.4557 41.2054 165.4557 47.9974 164.0557 47.9974 164.0557 41.2054 161.5227 41.2054"></polygon>
                <polygon id="Fill-11" fill="#E10500" points="169.2968 39.9974 171.2688 39.9974 173.4758 46.2594 173.4988 46.2594 175.6498 39.9974 177.5998 39.9974 177.5998 47.9974 176.2658 47.9974 176.2658 41.8224 176.2438 41.8224 174.0258 47.9974 172.8708 47.9974 170.6518 41.8224 170.6298 41.8224 170.6298 47.9974 169.2968 47.9974"></polygon>
            </g>
            <polygon id="Fill-14" fill="#14141D" points="203.8734 0.0005 203.8734 10.5615 222.1124 10.5615 222.1124 48.0015 234.9134 48.0015 234.9134 10.5615 253.1534 10.5615 253.1534 0.0005"></polygon>
            <g id="Group-17" transform="translate(253.792500, 0.000900)">
                <mask id="mask-6" fill="white">
                    <use xlink:href="#path-5"></use>
                </mask>
                <g id="Clip-16"></g>
                <path d="M13.248,0 L24.128,35.264 C24.299,35.734 24.47,36.107 24.641,36.384 C24.811,36.662 25.088,36.8 25.473,36.8 C25.898,36.8 26.208,36.672 26.4,36.416 C26.593,36.16 26.773,35.755 26.944,35.2 L37.889,0 L50.561,0 L38.656,37.44 C37.546,40.896 36.011,43.627 34.049,45.632 C32.085,47.638 29.312,48.64 25.728,48.64 C21.846,48.64 18.934,47.702 16.992,45.824 C15.051,43.947 13.482,41.152 12.288,37.44 L0,0 L13.248,0 Z" id="Fill-15" fill="#14141D" mask="url(#mask-6)"></path>
            </g>
        </g>
    </g>
</svg>