<?xml version="1.0" encoding="utf-8"?>
<!-- Generator: Adobe Illustrator 22.1.0, SVG Export Plug-In . SVG Version: 6.00 Build 0)  -->
<svg version="1.1"
	 id="svg234" inkscape:version="0.92.0 r15299" sodipodi:docname="sky sports.svg" xmlns:cc="http://creativecommons.org/ns#" xmlns:dc="http://purl.org/dc/elements/1.1/" xmlns:inkscape="http://www.inkscape.org/namespaces/inkscape" xmlns:rdf="http://www.w3.org/1999/02/22-rdf-syntax-ns#" xmlns:sodipodi="http://sodipodi.sourceforge.net/DTD/sodipodi-0.dtd" xmlns:svg="http://www.w3.org/2000/svg"
	 xmlns="http://www.w3.org/2000/svg" xmlns:xlink="http://www.w3.org/1999/xlink" x="0px" y="0px" viewBox="0 0 12674.7 2669.5"
	 style="enable-background:new 0 0 12674.7 2669.5;" xml:space="preserve">
<style type="text/css">
	.st0{fill:url(#SVGID_1_);}
	.st1{fill:url(#SVGID_2_);}
	.st2{fill:#FFFFFF;}
	.st3{opacity:0.2;fill:#FFFFFF;}
</style>
<linearGradient id="SVGID_1_" gradientUnits="userSpaceOnUse" x1="8558.3428" y1="2669.4758" x2="8558.3428" y2="4.3333">
	<stop  offset="0" style="stop-color:#B00005"/>
	<stop  offset="0.25" style="stop-color:#B70007"/>
	<stop  offset="0.5" style="stop-color:#BE010A"/>
	<stop  offset="0.75" style="stop-color:#C6010D"/>
	<stop  offset="1" style="stop-color:#CD010F"/>
</linearGradient>
<path class="st0" d="M12493.2,0H4442v2669.5h8051.1c101.4,0,181.5-80.1,181.5-181.5V1030.4v-2.7V181.5
	C12674.7,80.1,12594.6,0,12493.2,0z"/>
<linearGradient id="SVGID_2_" gradientUnits="userSpaceOnUse" x1="2221.0049" y1="6.267200e-03" x2="2221.0049" y2="2669.4758">
	<stop  offset="0" style="stop-color:#001455"/>
	<stop  offset="0.25" style="stop-color:#001150"/>
	<stop  offset="0.5" style="stop-color:#000E4B"/>
	<stop  offset="0.75" style="stop-color:#000B46"/>
	<stop  offset="1" style="stop-color:#000841"/>
</linearGradient>
<path class="st1" d="M4442,0H181.5C80.1,0,0,80.1,0,181.5v1607V2488c0,101.4,80.1,181.5,181.5,181.5H4442V1356.1l0,0V0z"/>
<path class="st2" d="M2110.6,1802.9c0,111.7-43.8,175.1-260.8,175.1c-28.5,0-53.3-1.7-78-5.1v-1484c0-112.1,38-229.3,257-229.3
	c28.6,0,55.2,2.5,81.9,8.6V1802.9z M1658.5,1575.6c0,208.5-135.7,361-411,390.9c-200.7,21.6-491.2-3.6-628.8-19.3
	c-5.8-22.6-9.6-50.6-9.6-73.2c0-182.2,97.5-224.3,191.2-224.3c95.5,0,246.5,17.4,359.4,17.4c122.3,0,160.5-41.7,160.5-81.8
	c0-52.4-49.7-74.2-145.2-92.3l-263.8-50.7c-217.9-42-334.5-192.7-334.5-353c0-195.5,137.6-358.8,409.1-388.4
	c204.5-22.6,454.9,2.6,592.6,19.3c5.7,23.5,7.6,46.3,7.6,69.7c0,182.4-95.5,221.7-189.3,221.7c-68.7,0-179.6-13.2-305.7-13.2
	c-128.1,0-181.7,35.5-181.7,78.3c0,45.4,51.6,63.7,130,78.3l252.3,46.3C1547.7,1248.5,1658.5,1395.1,1658.5,1575.6 M3004.6,2376.4
	c28.8,15.1,86.1,32.3,160.8,34.2c126.2,2.4,195.1-45.4,246.8-159.8l681.3-1518.2c-26.8-14.8-90-31.6-141.6-32.2
	c-86.1-1.9-204.8,15.5-279.3,194.4l-220.1,520.4l-432.5-703.7c-28.7-8.6-95.6-20.7-145.4-20.7c-153.1,0-239.2,55.8-327.3,151.8
	l-419.1,460.2l336.8,531.4c63.2,97.2,145.5,146.7,277.5,146.7c88,0,160.7-20.1,195.1-36.7l-405.7-613l287-306.3l472.6,743"/>
<g>
	<path id="path4078" inkscape:connector-curvature="0" sodipodi:nodetypes="ccccccccccccccc" class="st2" d="M5066.6,1738
		c62.7,0,212.9,66.4,408.2,66.4c173.3,0,301.2-56.2,301.2-182.1c0-279.9-789.9-130.5-789.9-580.2c0-171,125.6-350.9,483.3-350.9
		c260,0,447.6,80.5,447.6,80.5s3.2,13.6,3.2,39.9c0,61.3-22.5,115.5-74.1,115.1c-81.6,0-180.1-61.8-379-61.8
		c-189,0-275,71.9-275,167.6c0,272.2,789.6,125.5,789.6,582.9c0,203.8-159.4,368.2-511.4,368.2c-276.9,0-480.8-85.7-480.8-85.7
		s-3-14.7-3-41.2C4986.4,1757.2,5035,1738,5066.6,1738L5066.6,1738z"/>
	<path id="path4080" inkscape:connector-curvature="0" class="st2" d="M6853.4,690.3c-305.7,0-438.6,217.1-438.6,217.1V784.9
		c0-57.1-36.7-79.1-103.8-79.1c-53.1,0.6-96.4,13.7-96.4,13.7v1656.4c0,0,34.2,11,93.6,11c68.6,0,106.6-19,106.6-85.8v-536.7
		c0,0,129,216.6,435.1,216.6c325.9,0,601-248.6,601-645.3C7450.8,890.2,7122.3,690.3,6853.4,690.3z M6814.5,870.3
		c253.5,0,430.8,203.9,430.8,464.2c0,242.6-150.9,470-437.5,470c-194.9,0-344.2-136.2-393.1-240.1v-453.8
		C6462.2,1009.3,6608.9,870.3,6814.5,870.3L6814.5,870.3z"/>
	<path id="path4084" inkscape:connector-curvature="0" class="st2" d="M8289.7,691c-345.2,0-639.3,251.3-639.3,644.5
		c0,383.1,281.2,645.8,638.3,645.8c362.8,0,638.5-266.6,638.5-645.7C8927.2,948.3,8643.5,691,8289.7,691L8289.7,691z M8288.6,870.3
		c255.1,0,433.8,199.9,433.8,462.5c0,295.5-197.3,471.3-433.5,471.3c-236.1,0-433-183.9-433-470.2
		C7855.9,1054.3,8050.4,870.3,8288.6,870.3L8288.6,870.3z"/>
	<path id="path4088" inkscape:connector-curvature="0" sodipodi:nodetypes="ccccccccccccccc" class="st2" d="M11161.6,1738
		c62.7,0,212.9,66.4,408.2,66.4c173.3,0,301.2-56.2,301.2-182.1c0-279.9-789.9-130.5-789.9-580.2c0-171,125.6-350.9,483.3-350.9
		c260,0,447.6,80.5,447.6,80.5s3.2,13.6,3.2,39.9c0,61.3-22.5,115.5-74.1,115.1c-81.6,0-180.1-61.8-379-61.8
		c-189,0-275,71.9-275,167.6c0,272.2,789.6,125.5,789.6,582.9c0,203.8-159.4,368.2-511.4,368.2c-276.9,0-480.8-85.7-480.8-85.7
		s-3-14.7-3-41.2C11081.4,1757.2,11130.1,1738,11161.6,1738L11161.6,1738z"/>
	<path id="path4090" inkscape:connector-curvature="0" sodipodi:nodetypes="ccccccccccccc" class="st2" d="M9173.4,1954.1V720.3
		c0,0,37.9-13,94.8-13c83.5,0,106,29.7,106,83v144.1c73.2-109.1,215.3-224.5,442.4-224.5c56.9,0,103.4,10.9,103.4,10.9
		s7.3,26.6,7.3,82c0,56.1-10.7,94.2-111.5,94.2c-208.1,0-357.5,94.2-441.6,272.3V1890c0,49-33.9,75.3-104.9,75.3
		C9211.5,1965.3,9173.4,1954.1,9173.4,1954.1z"/>
	<path id="path4118" inkscape:connector-curvature="0" sodipodi:nodetypes="ccccccccccccccc" class="st2" d="M10522.5,1981.8
		c-263.9,0-393.4-161-393.4-369.4V491.7c0-46.4,17.3-81,107.9-81c53.1,0,92.9,14.5,92.9,14.5v293.8h496.4c0,0,7.1,31.9,7.1,80.8
		c0,80.5-35.1,97-75.4,97h-428.2v704.8c0,114.4,63.1,197.4,213.3,197.4c121.9,0,206.1-49.1,260.9-49.1c73.6,0,84.8,81.3,76.7,149.5
		C10880.7,1899.4,10729.4,1981.8,10522.5,1981.8L10522.5,1981.8z"/>
</g>
<path class="st3" d="M12674.7,181.5c0-101.4-80.1-181.5-181.5-181.5H4442v0H181.5C80.1,0,0,80.1,0,181.5v1607
	c0-98.4,61.4-252.1,268.2-265.2L4442,1356.1v0l0,0v0l8232.7-328.3V181.5z"/>
</svg>
